<?xml version="1.0" encoding="UTF-8"?>
<svg width="2490px" height="4132px" viewBox="0 0 2490 4132" version="1.1" xmlns="http://www.w3.org/2000/svg" xmlns:xlink="http://www.w3.org/1999/xlink">
    <!-- Generator: Sketch 50.2 (55047) - http://www.bohemiancoding.com/sketch -->
    <title>bär-grau</title>
    <desc>Created with Sketch.</desc>
    <defs></defs>
    <g id="Page-1" stroke="none" stroke-width="1" fill="none" fill-rule="evenodd">
        <g id="bär" fill="#E7E6E6" fill-rule="nonzero">
            <path d="M143.970754,531.622074 C139.389825,493.354426 129.236216,448.389589 108,429 C146.715786,433.399521 173.043869,464.122912 182.215502,482.338949 C182.87771,481.806798 183.546424,481.275239 184.221484,480.744369 C180.047314,443.116323 166.823169,398.030845 151,385 C186.405404,387.655405 218.676951,419.298984 230.477852,450.804928 C231.090518,450.474396 231.704782,450.145176 232.320586,449.817303 C227.330694,412.668764 219.554689,374.448371 199,353 C243.825854,357.482585 272.57685,396.526114 282.370713,427.617003 C283.002603,427.391327 283.634541,427.167728 284.266476,426.946237 C281.002126,388.629614 270.246634,351.158966 252,332 C285.456127,333.808439 323.817933,365.050953 336.774041,413.898711 C337.288948,413.831161 337.802755,413.765873 338.315428,413.702868 C334.32642,378.111632 327.691659,343.162324 306,318 C344.333431,321.650803 387.664998,359.455534 394.17818,419.249387 C397.709171,420.856442 400.99383,422.766845 404,425 C545,529 493,725 610,814 C726,902 933,941 1225,1027 C1120,1156 1061,1221 1065,1534 C74,968 364,887 147,549 C143.666296,543.803344 142.784118,537.933721 143.970754,531.622076 Z M1668.61354,571.063955 C1553.27853,508.60085 1169.99008,636.41999 1169,379 C1169,335 1206,337 1207,378 C1207,417 1230,470 1417,500 C1505.50089,514.274338 1601.24647,500.475528 1658.56263,522.374954 C1652.40786,502.301563 1643.57597,483.247039 1631,466 C1620,452 1608,441 1596,431 C1589,445 1579,460 1558,460 C1538,460 1513,459 1501,430 C1488,450 1439,449 1429,421 C1425,410 1425,391 1428,373 C1427,372 1425,372 1423,371 C1398,388 1382,406 1377,446 C1326,405 1321,380 1329,331 C1266,285 1249,228 1248,140 C1248,126 1257,120 1269,119 L1513,110 L1513,109 C1612,43 1703,0 1862,0 C2048,0 2060,25 2155,50 C2273,-48 2478,109 2329,266 C2351,353 2361,416 2362,501 C2364,809 2279,777 2278,925 C2277,976 2325,1088 2326,1174 C2329,1378 2191,1607 2191,1729 C2191,1819 2221,1907 2248,1992 C2317,2201 2290,2525 2457,2732 L2449,2848 L2393,2847 C2395,2911 2413,3371 2452,3531 C2466,3587 2517,3658 2470,3719 C2432,3768 2384,3818 2344,3868 C2249,3989 2085,4112 1927,4117 C1922.73758,4117.14208 1918.57385,4116.5193 1914.51551,4115.20347 C1866.32547,4112.24459 1818.79273,4114.39794 1791,4132 C1807.15369,4099.69262 1823.30738,4077.85512 1865.48066,4059.25984 C1864.35564,4056.88286 1863.25065,4054.45305 1862.16608,4051.97446 C1818.76454,4049.85709 1783.04251,4050.5971 1755,4069 C1765.74093,4037.6723 1797.31209,4003.94111 1841.82537,3991.47082 C1841.26772,3989.306 1840.72233,3987.13097 1840.18934,3984.94728 C1803.76435,3980.99718 1754.55832,3987.24458 1735,4000 C1747.41869,3963.63097 1785.80365,3930.40937 1828.51748,3921.9726 C1828.24529,3919.8658 1827.98565,3917.76453 1827.73867,3915.67013 C1795.90416,3911.15591 1745.13824,3917.15962 1727,3932 C1736.52096,3897.37834 1778.25587,3859.76004 1824.32224,3852.21505 C1824.36434,3850.32406 1824.42208,3848.45694 1824.49562,3846.6153 C1787.70659,3842.2482 1743.75597,3850.56108 1728,3863 C1743.0341,3819.66643 1789.3518,3781.80749 1847.58695,3779.8557 C1848.99058,3779.36452 1850.46125,3779.07568 1852,3779 C1909,3776 1968,3775 2018,3750 C2056,3735 2058,3686 2032,3660 C1775,3405 1629,3290 1597,2742 L1553,2744 C1550,2888 1577,3026 1613,3164 C1522,3207 1430,3263 1359,3333 C1211,3473 1148,3679 1103,3873 C1098,3927 1047,3962 996,3967 C906,3981 830,3929 751,3897 C631,3835 513,3824 405,3771 C403.485595,3770.26891 402.052319,3769.36056 400.697982,3768.28453 C363.854486,3750.29877 317.299932,3735.5559 286,3742 C303.973079,3721.18907 333.578874,3701.27296 381.589069,3700.02734 C381.570665,3698.70897 381.560971,3697.37914 381.55986,3696.03843 C353.312409,3682.74116 312.10828,3663.85428 275,3672 C300.40962,3641.88489 342.646851,3624.16908 386.708772,3631.35499 C386.838868,3630.4619 386.971217,3629.56791 387.105792,3628.67313 C354.293907,3611.53328 308.62219,3597.53692 280,3604 C312.736086,3564.18584 362.693742,3557.24923 400.091676,3565.18286 C400.377764,3564.08062 400.666477,3562.98121 400.957764,3561.88487 C370.541306,3546.37627 325.412796,3530.21426 296,3538 C321.547233,3502.76244 382.792932,3487.70227 421.626342,3500.33971 C421.959116,3499.56031 422.293107,3498.78683 422.62828,3498.01942 C396.078629,3482.85349 351.754568,3469.15047 320,3475 C351.128575,3434.71596 414.947927,3422.09335 466.179458,3444.80651 C500.940228,3439.35841 542.358661,3455.15691 574,3469 C645,3496 686,3570 760,3587 C787,3597 823,3581 816,3548 C780,3349 764,3134 849,2945 C926,2788 1046,2636 1367,2484 C1392,2508 1438,2559 1465,2575 L1496,2552 C1345,2418 1280,2332 1224,2112 C1267,2098 1303,2085 1344,2067 L1331,2026 C1270,2044 991,2162 670,2160 C360,2158 174,1910 60,1737 C55.732168,1730.5129 53.8103495,1722.94021 53.8906404,1714.54377 C41.9018388,1672.03354 27.7737497,1621.87782 0,1595 C38.9403066,1591.68593 66.2111215,1617.20237 85.7935399,1641.40674 C87.6558171,1638.8314 89.5829668,1636.24602 91.5704107,1633.65407 C81.4402856,1592.53949 68.099689,1545.57391 42,1522 C85.3782447,1517.66218 118.971794,1550.20512 137.556737,1582.40847 C138.842269,1581.15183 140.135233,1579.89927 141.435065,1578.65121 C133.30943,1539.07663 120.469663,1493.60695 92,1466 C136.184099,1460.5897 167.358722,1490.95547 192.855653,1534.36875 C194.178184,1533.34995 195.500485,1532.34022 196.822065,1531.33994 C186.691282,1490.36773 171.518808,1442.90561 148,1422 C192.542582,1416.65489 230.73623,1454.9587 250.562036,1495.90572 C251.619999,1495.32419 252.67209,1494.75398 253.717975,1494.19536 C245.015533,1454.32106 227.785987,1403.81447 206,1389 C254.419844,1382.72335 298.015653,1428.70709 315.159736,1477.92845 C318.307482,1478.97046 320.944143,1480.64329 323,1483 C403,1574 458,1664 527,1783 C547,1817 643,1793 680,1776 C831,1706 1061,1584 1187,1524 L1179,1486 L1109,1517 C1102,1395 1117,1269 1178,1163 C1251,1029 1386,949 1514,876 C1563,845 1629,808 1623,742 C1387,747 1358,729 1357,663 C1367,662 1378,661 1389,660 C1385,603 1400,591 1425,575 C1434,594 1445,613 1459,631 L1459,620 C1459,585 1521,581 1541,603 C1559,574 1638,580 1639,614 L1639,638 C1650,637 1661,636 1672,635 C1672,613.812437 1671.22623,592.237992 1668.61354,571.063955 Z M1861,300 C1743,113 1648,94 1613,229 C1599,284 1647,283 1658,242 C1671,196 1693,148 1780,281 C1788,292 1815,300 1830,300 L1861,300 Z M2153,202 C2181,174 2214,150 2253,133 C2300,117 2276,69 2217,89 C2177,102 2140,133 2116,165 L2153,202 Z M1340,338 C1331,369 1342,404 1369,423 C1374,401 1390,381 1407,367 C1376,358 1355,347 1340,338 Z M1500,391 C1480,385 1459,381 1439,376 C1435,391 1435,407 1438,416 C1446,438 1483,439 1493,423 C1497,417 1500,404 1500,391 Z M1512,394 C1509,406 1507,420 1512,430 C1522,449 1540,450 1556,450 C1574,450 1583,438 1588,426 C1565,411 1539,402 1512,394 Z M1458,654 L1458,647 C1444,630 1432,611 1421,591 C1399,607 1396,631 1399,659 L1458,654 Z M1539,647 L1539,622 C1538,591 1468,589 1468,622 L1468,653.5 L1539,647 Z M1629,639 L1629,617 C1629,587 1548,585 1548,618 L1548,646 L1629,639 Z" id="Combined-Shape"></path>
        </g>
    </g>
</svg>