<?xml version="1.0" encoding="UTF-8"?>
<svg width="202px" height="505px" viewBox="0 0 202 505" version="1.1" xmlns="http://www.w3.org/2000/svg" xmlns:xlink="http://www.w3.org/1999/xlink">
    <!-- Generator: Sketch 59.1 (86144) - https://sketch.com -->
    <title>Untitled 3</title>
    <desc>Created with Sketch.</desc>
    <g id="Page-1" stroke="none" stroke-width="1" fill="none" fill-rule="evenodd">
        <g id="fernsehturm" fill="#DCDCDC" fill-rule="nonzero">
            <path d="M193.549,487.659 L142.421,487.659 C137.099,440.305 134.795,392.256 134.795,344.971 L143.188,344.971 C157.457,344.971 168.368,334.06 168.368,319.791 C168.368,305.522 157.457,294.611 143.188,294.611 L133.955,294.611 L133.955,271.136 C163.976,258.315 185.155,228.457 185.155,193.89 C185.155,159.649 164.366,130.043 134.794,117.025 L134.794,84.775 C134.794,79.739 131.437,76.382 126.401,76.382 L109.614,76.382 L109.614,8.393 C109.614,3.357 106.257,0 101.221,0 C96.185,0 92.828,3.357 92.828,8.393 L92.828,76.38 L76.041,76.38 C71.005,76.38 67.648,79.737 67.648,84.773 L67.648,117.023 C38.076,130.041 17.287,159.647 17.287,193.888 C17.287,228.129 38.076,257.735 67.648,270.753 L67.648,294.609 L59.255,294.609 C44.986,294.609 34.075,305.52 34.075,319.789 C34.075,334.058 44.986,344.969 59.255,344.969 L67.648,344.969 C67.648,392.014 65.369,439.817 60.105,487.657 L8.894,487.657 C3.858,487.657 0.501,491.014 0.501,496.05 C0.501,501.086 3.858,504.443 8.894,504.443 L67.648,504.443 L134.796,504.443 L193.55,504.443 C198.586,504.443 201.943,501.086 201.943,496.05 C201.943,491.016 198.585,487.659 193.549,487.659 Z M84.434,93.167 L118.008,93.167 L118.008,111.633 C117.805,111.604 117.611,111.576 117.41,111.547 C113.078,110.691 108.627,110.182 104.09,110.028 C103.15,109.985 102.2,109.955 101.222,109.955 C100.244,109.955 99.293,109.985 98.354,110.028 C93.816,110.183 89.366,110.692 85.034,111.547 C84.831,111.575 84.637,111.604 84.434,111.633 L84.434,93.167 Z M34.073,193.889 C34.073,156.958 64.289,126.741 101.221,126.741 C138.153,126.741 168.369,156.957 168.369,193.889 C168.369,230.821 138.153,261.037 101.221,261.037 C64.289,261.037 34.073,230.82 34.073,193.889 Z M118.008,276.144 L118.008,294.61 L84.434,294.61 L84.434,276.144 C95.344,278.662 107.096,278.662 118.008,276.144 Z M76.88,487.659 C81.916,440.656 84.434,392.813 84.434,344.971 L118.008,344.971 C118.008,391.974 120.526,439.817 125.562,487.659 L76.88,487.659 Z M76.041,328.184 L59.254,328.184 C54.218,328.184 50.861,324.827 50.861,319.791 C50.861,314.755 54.218,311.398 59.254,311.398 L76.041,311.398 L126.402,311.398 L143.189,311.398 C148.225,311.398 151.582,314.755 151.582,319.791 C151.582,324.827 148.225,328.184 143.189,328.184 L126.402,328.184 L76.041,328.184 L76.041,328.184 Z" id="Shape"></path>
        </g>
    </g>
</svg>